<?xml version="1.0" encoding="utf-8"?>
<!-- Generator: Adobe Illustrator 25.4.1, SVG Export Plug-In . SVG Version: 6.00 Build 0)  -->
<svg version="1.1" id="Layer_1" xmlns="http://www.w3.org/2000/svg" xmlns:xlink="http://www.w3.org/1999/xlink" x="0px" y="0px"
	 viewBox="0 0 200 80" style="enable-background:new 0 0 200 80;" xml:space="preserve">
<style type="text/css">
	.st0{fill:#EE7800;}
	.st1{fill:#595857;}
	.st2{fill:#FFFFFF;}
</style>
<g id="Layer_15">
	<polygon class="st0" points="103.18,36.25 103.18,39.97 94.37,39.97 94.37,60.74 90.26,60.74 90.26,39.97 82.8,39.97 85.72,36.25 	
		"/>
	<path class="st0" d="M135.2,40.18c-0.69,0.11-1.45,0.37-2.25,0.74c-0.8,0.37-1.49,0.84-2.1,1.43c-1.64,1.54-2.47,3.53-2.47,5.99
		c0,2.51,0.8,4.57,2.42,6.21c0.5,0.5,1.06,0.93,1.67,1.28c0.58,0.32,1.34,0.61,2.25,0.84c0.91,0.22,2.19,0.32,3.87,0.32h4.24v3.72
		h-4c-2.14,0-3.59-0.06-4.35-0.17c-0.78-0.13-1.62-0.37-2.53-0.74c-1.58-0.61-2.96-1.47-4.15-2.64c-2.34-2.27-3.66-5.39-3.66-8.63
		c0-2.29,0.56-4.39,1.71-6.34c1.15-1.93,2.68-3.4,4.63-4.41c1.95-1.02,4.57-1.49,7.83-1.49h4.5v3.72h-4.13
		C137.08,40.01,135.92,40.08,135.2,40.18"/>
	<polygon class="st1" points="68.73,60.74 68.73,50.25 60.23,50.25 60.23,60.74 56.14,60.74 56.14,36.27 60.23,36.27 60.23,46.52 
		68.73,46.52 68.73,36.27 72.8,36.27 72.8,60.74 	"/>
	<path class="st0" d="M102.94,36.25h8.35c3.27,0,5.89,0.5,7.83,1.49c1.95,1,3.48,2.47,4.63,4.39c1.15,1.95,1.71,4.05,1.71,6.34
		c0,1.64-0.32,3.2-0.95,4.7c-0.63,1.49-1.54,2.81-2.7,3.94c-1.19,1.17-2.57,2.06-4.15,2.64c-0.93,0.37-1.77,0.61-2.53,0.74
		c-0.76,0.11-2.21,0.17-4.35,0.17h-7.88V36.25H102.94z M107.03,39.97v16.98h4c1.69,0,2.99-0.11,3.87-0.32
		c0.93-0.24,1.67-0.52,2.27-0.84c0.61-0.35,1.17-0.78,1.67-1.28c1.6-1.62,2.42-3.7,2.42-6.21c0-2.47-0.82-4.46-2.49-5.99
		c-0.61-0.58-1.3-1.06-2.1-1.43c-1.99-0.93-3.57-0.91-5.73-0.93h-3.92v0.02H107.03z"/>
	<polygon class="st1" points="71.37,48.41 81.39,36.25 86.39,36.25 76.78,48.34 86.69,60.74 81.56,60.74 	"/>
	<path class="st1" d="M139.98,72.53c0,0.71-0.56,1.28-1.25,1.32h-4.57v-3.59H140v2.27H139.98z M138.75,72.14v-0.71h-3.38v1.23h2.83
		C138.51,72.66,138.75,72.42,138.75,72.14 M141.15,64.81h-8.09v1.17h7.55c0.28,0,0.52-0.24,0.52-0.52L141.15,64.81z M133.06,67.17
		v1.02h9.74c-0.02,3.94-0.28,6.19-0.78,6.75c-0.26,0.5-1.15,0.76-2.94,0.74V74.4c0,0,0.78,0,1.06,0c0.41,0,0.74-0.17,0.95-0.5
		c0.19-0.32,0.32-1.86,0.37-4.57h-8.44c-0.04,0.8-0.11,1.64-0.24,2.49c-0.24,1.32-0.61,2.64-1.15,3.94l-1.06-0.97
		c0.52-1.06,0.87-2.16,1.06-3.31c0.15-1.19,0.22-2.29,0.22-3.31v-4.5h10.54v2.21c0,0.74-0.61,1.32-1.32,1.32h-8.01L133.06,67.17
		L133.06,67.17z"/>
	<path class="st1" d="M117.18,69.2c0,0.71-0.56,1.3-1.28,1.32h-1.34l-0.13,1.06h2.88c-0.04,1.69-0.17,2.77-0.39,3.22
		c-0.24,0.52-0.78,0.8-1.62,0.8h-2.34v-1.19c0,0,1.86,0,2.38,0c0.24,0,0.41-0.11,0.54-0.32c0.11-0.26,0.15-0.76,0.17-1.51H113
		l0.37-3.12h2.01c0.28-0.02,0.5-0.24,0.5-0.52V68.4h-2.51v-0.56c-0.35,0.11-0.69,0.24-1.06,0.35l-0.65-1.23
		c0.8-0.17,1.49-0.35,2.08-0.54c-0.3-0.3-0.63-0.63-1.02-0.97l0.91-0.58c0.56,0.41,1.02,0.78,1.41,1.08l0.24-0.13
		c0.65-0.3,1.17-0.67,1.56-1.17h-3.74v-1.08h5.19c0.3,0.35,0.65,0.65,1.15,1c0.24-0.15,0.48-0.32,0.71-0.54
		c0.26-0.24,0.52-0.54,0.78-0.93l1.02,0.58c-0.32,0.5-0.63,0.89-0.91,1.15c-0.15,0.15-0.3,0.28-0.48,0.43
		c0.24,0.13,0.52,0.28,0.8,0.41c0.28-0.17,0.54-0.37,0.76-0.61c0.28-0.28,0.56-0.63,0.84-1.06l1.02,0.58
		c-0.35,0.54-0.67,0.97-0.97,1.25c-0.13,0.13-0.26,0.26-0.39,0.37c0.63,0.24,1.3,0.5,2.01,0.71l-0.76,1.06
		c-0.56-0.19-1.08-0.39-1.56-0.58v1.41c0,0.28,0.15,0.43,0.43,0.43h1.23v1.06h-1.49c-0.45,0-0.8-0.11-1-0.3
		c-0.24-0.19-0.35-0.52-0.35-1v-0.65h-1.28c-0.04,0.52-0.13,0.89-0.26,1.13c-0.15,0.3-0.56,0.65-1.25,1.06l-0.91-0.74
		c0.56-0.37,0.93-0.67,1.06-0.89c0.11-0.22,0.17-0.74,0.17-1.58h3.48c-0.76-0.3-1.38-0.63-1.93-0.93c-0.87-0.48-1.6-0.97-2.19-1.54
		c-0.35,0.56-0.8,1.02-1.32,1.38c-0.41,0.32-1.13,0.69-2.12,1.08h2.57v1.89H117.18z M118.15,70.74h4.87v0.91
		c-0.41,0.82-0.93,1.54-1.62,2.14c0.76,0.3,1.77,0.58,3.01,0.8l-0.76,1.06c-1.43-0.32-2.51-0.69-3.25-1.06
		c-0.74,0.5-1.56,0.87-2.42,1.1l-0.54-1.08c0.71-0.15,1.34-0.37,1.86-0.67c-0.58-0.39-1.08-0.84-1.49-1.36l1.02-0.58
		c0.41,0.48,0.91,0.89,1.47,1.23c0.43-0.41,0.82-0.89,1.17-1.45h-3.31v-1.04H118.15z"/>
	<path class="st1" d="M94.68,67.79h9.74v4.57c0,0.74-0.61,1.32-1.32,1.32h-8.42V67.79L94.68,67.79z M103.14,72.23V71.9h-7.16v0.8
		h6.66C102.9,72.7,103.11,72.51,103.14,72.23 M95.97,71.06h7.16V70.3h-7.16V71.06L95.97,71.06z M95.97,69.5h7.16v-0.74h-7.16V69.5
		L95.97,69.5z M97.51,65.95c-0.11-0.26-0.24-0.5-0.35-0.74l1.02-0.32c0.37,0.65,0.71,1.41,1.02,2.25l-1.13,0.26
		c-0.06-0.17-0.11-0.35-0.17-0.5c-1.23,0.3-2.55,0.56-4.15,0.84v-3.96c1.41-0.09,3.18-0.37,4.76-0.76l0.43,1.06
		c-0.76,0.19-2.16,0.39-3.89,0.63v1.73C95.76,66.32,96.8,66.13,97.51,65.95 M99.46,63.62h5.89c-0.02,2.03-0.22,3.03-0.61,3.31
		c-0.22,0.26-0.91,0.39-2.12,0.39l-0.19-1.19c0.35,0.06,0.63,0.11,0.84,0.11c0.26,0,0.48-0.06,0.61-0.17s0.22-0.63,0.24-1.56h-1.73
		c-0.09,0.76-0.28,1.32-0.56,1.71c-0.37,0.5-1,0.93-1.88,1.3l-0.8-1.02c0.78-0.26,1.32-0.56,1.6-0.87c0.24-0.24,0.39-0.61,0.48-1.13
		h-1.75v-0.88H99.46z M97.79,73.79l0.63,0.84c-0.74,0.28-1.38,0.5-1.97,0.63c-0.67,0.15-1.51,0.3-2.53,0.48l-0.65-1.13
		c1-0.11,1.88-0.22,2.64-0.35C96.62,74.11,97.25,73.96,97.79,73.79 M100.99,73.79c1.51,0.17,3.07,0.45,4.72,0.84l-0.43,1.13
		c-1.51-0.45-3.09-0.78-4.76-1.02L100.99,73.79z"/>
	<path class="st1" d="M75.94,63.29c0.76,0.35,1.45,0.76,2.08,1.23l-0.8,1.23c-0.65-0.61-1.3-1.08-1.97-1.45L75.94,63.29z
		 M75.4,66.52c0.8,0.37,1.54,0.82,2.21,1.32l-0.8,1.23c-0.67-0.65-1.36-1.17-2.08-1.54L75.4,66.52z M76.57,69.83l0.65,0.48
		c0.97-0.5,1.64-0.95,2.06-1.36c0.22-0.22,0.41-0.45,0.61-0.74h-2.12v-1.13h1.99v-1.34h-1.67v-1.13h1.67V63.2h1.3v1.41h2.51V63.2
		h1.23v1.41h2.08v1.13H84.8v1.34h2.4v1.13h-2.55c0.3,0.39,0.61,0.67,0.89,0.87c0.43,0.35,1.06,0.67,1.84,1l-0.54,1.17
		c-0.82-0.41-1.45-0.78-1.93-1.15v1.43c0,0.74-0.61,1.32-1.32,1.32h-3.05V74c0,0.28,0.15,0.43,0.48,0.43h3.79
		c0.26,0,0.45-0.06,0.58-0.17c0.13-0.13,0.24-0.32,0.28-1.36h1.17c-0.11,1.32-0.3,2.08-0.58,2.32c-0.24,0.24-0.67,0.35-1.3,0.35
		H80.5c-0.39,0-0.69-0.11-0.91-0.32c-0.22-0.22-0.32-0.5-0.32-0.87v-3.85c-0.41,0.32-0.91,0.65-1.45,0.97l-0.28-0.48
		c-0.52,1.82-1.08,3.33-1.71,4.7l-1.02-1.06C75.38,73.55,75.96,71.93,76.57,69.83 M80.46,69.39h3.61c-0.28-0.3-0.56-0.69-0.84-1.17
		H81.2C80.96,68.68,80.72,69.07,80.46,69.39 M81.02,67.1h2.51v-1.34h-2.51V67.1z M80.48,70.48v1.34h2.62c0.28,0,0.52-0.24,0.52-0.52
		v-0.8h-3.14V70.48z"/>
	<path class="st1" d="M66.94,63.49l0.65,1.13c-1.3,0.22-2.81,0.39-4.54,0.5v1.49h5.67v1.13h-4.15c0.5,0.43,0.97,0.82,1.38,1.04
		c0.67,0.37,1.62,0.71,2.81,1.06l-0.58,1.23c-0.43-0.15-0.82-0.3-1.17-0.48v3.85c0,0.74-0.61,1.32-1.32,1.32h-7.72v-5.15
		c-0.35,0.17-0.74,0.32-1.13,0.5l-0.74-1.23c1.54-0.5,2.6-0.97,3.22-1.38c0.32-0.19,0.61-0.5,0.89-0.78h-3.98v-1.1h5.52v-1.43
		c-1.34,0.04-2.79,0.09-4.35,0.09l-0.37-1.17C60.92,64.07,64.21,63.88,66.94,63.49 M59.17,74.63h6.1c0.26-0.02,0.48-0.22,0.5-0.48
		v-0.63h-6.6V74.63z M59.17,72.38h6.6v-0.95h-6.6V72.38z M58.65,70.24h3.07V67.8h-0.11c-0.39,0.56-0.84,1.04-1.36,1.45
		C59.84,69.57,59.3,69.91,58.65,70.24 M63.02,70.24h3.22c-0.56-0.26-1.02-0.52-1.36-0.78c-0.56-0.35-1.13-0.91-1.73-1.67h-0.13
		C63.02,67.79,63.02,70.24,63.02,70.24z"/>
	<rect x="56.12" y="4.25" class="st2" width="86.66" height="27.05"/>
	<path class="st0" d="M56.12,31.29v-3.64c0,0-1.02,0.3-2.7,0.3c-1.75,0.02-3.87-0.61-5.11-3.27c2.86,1.88,5.73,2.21,9.8,2.16
		c9.07-0.09,14.24-3.66,22.94-3.61c10.26,0.06,16.57,4.52,19.97,8.03h-44.9C56.12,31.26,56.12,31.29,56.12,31.29z"/>
	<path class="st0" d="M56.12,26.06V4.25h63.76c-11.45,1.41-18.17,9.91-21.49,19.08l3.44,5.15c6.3-9.09,12.16-15.88,26.74-16.05
		c9.26-0.11,21.68,3.63,21.53,15.28c-1.75-4.24-3.18-7.31-7.31-10.62v14.24H102.2c0,0-7.96-14.35-21.55-14.52
		C70.83,16.64,63.54,25.41,56.12,26.06"/>
	<path class="st0" d="M142.77,4.25v10.39c0,0-7.18-9.3-18.2-10.39H142.77z"/>
</g>
</svg>
