<?xml version="1.0" encoding="UTF-8"?>
<svg id="Layer_2" data-name="Layer 2" xmlns="http://www.w3.org/2000/svg" width="59" height="59" viewBox="0 0 59 59">
  <defs>
    <style>
      .cls-1 {
        fill: #4678ee;
      }

      .cls-2 {
        fill: none;
      }
    </style>
  </defs>
  <g id="Layer_1-2" data-name="Layer 1">
    <g>
      <rect class="cls-2" width="59" height="59"/>
      <path class="cls-1" d="M37.18,20.53c-3.65-3.07-2.77-7.44-.75-9.4,2.39-2.32,6.06-2.41,8.52-.17,.91,.83,1.5,1.86,1.8,3.06,.3,1.2,.19,2.38-.21,3.54-.4,1.17-1.17,2.07-2.16,2.9,4.21,1.98,5.65,5.41,5.28,9.85,.51,0,.92,0,1.33,0,.44,0,.84,.06,1.05,.5,.21,.43,.06,.8-.19,1.16-1.24,1.75-2.47,3.51-3.7,5.27-2.75,3.91-5.51,7.81-8.24,11.73-.36,.51-.76,.71-1.38,.71-10.11-.01-20.22,0-30.34-.01-.25,0-.51-.01-.75-.09-.33-.1-.56-.37-.55-.72,.03-2.03-.23-4.07,.25-6.07,.88-3.72,3.07-6.34,6.64-7.76,.08-.03,.16-.07,.34-.16-2.22-1.56-3.51-3.61-3.65-6.3-.09-1.72,.37-3.3,1.35-4.7,1.99-2.86,5.66-4.07,8.89-2.94,1.91,.67,3.36,1.92,4.31,3.7,.94,1.76,1.14,3.63,.66,5.63h6.2c0-.44,0-.85,0-1.26-.02-1.33,.12-2.62,.65-3.86,.87-2.04,2.3-3.54,4.33-4.45,.08-.04,.16-.08,.3-.15Zm12.42,11.52H24.96c-.66,1.15-1.52,2.11-2.7,2.82,.15,.09,.18,.12,.22,.14,.08,.04,.17,.07,.25,.11,3.29,1.4,5.43,3.82,6.41,7.25,.41,1.42,.37,2.88,.37,4.33,0,.39,0,.77,0,1.24h.77c2.52,0,5.03-.01,7.55,.01,.49,0,.79-.16,1.07-.57,2.7-3.89,5.42-7.76,8.13-11.63,.83-1.19,1.66-2.39,2.57-3.7Zm-21.72,15.85c0-.34,0-.59,0-.84-.02-1.01,.04-2.04-.09-3.04-.59-4.56-4.29-7.7-8.31-7.94-.69-.04-1.38-.04-2.07-.03-4.56,.07-8.32,3.45-8.79,7.99-.13,1.23-.04,2.49-.04,3.73,0,.04,.05,.07,.09,.13H27.88Zm-3.65-19.57c0-3.34-2.68-6.05-6.01-6.06-3.34-.02-6.05,2.66-6.07,6-.02,3.34,2.65,6.04,6.01,6.05,3.35,.01,6.07-2.66,6.08-5.99Zm9.42,1.91c1.09,.15,13.87,.1,14.4-.06,0-.63,.03-1.28,0-1.92-.13-2.63-1.33-4.6-3.65-5.89-1.55-.86-3.23-.92-4.92-.7-2.12,.27-3.72,1.39-4.87,3.18-1.06,1.66-1.04,3.49-.95,5.39Zm2.74-14.84c-.03,2.48,1.91,4.46,4.4,4.48,2.4,.02,4.41-1.95,4.46-4.38,.04-2.42-1.97-4.46-4.43-4.48-2.44-.02-4.4,1.92-4.43,4.38Z"/>
    </g>
  </g>
</svg>