<?xml version="1.0" encoding="UTF-8"?>
<svg id="Layer_2" data-name="Layer 2" xmlns="http://www.w3.org/2000/svg" width="59" height="59" viewBox="0 0 59 59">
  <defs>
    <style>
      .cls-1 {
        fill: #4678ee;
      }

      .cls-2 {
        fill: none;
      }
    </style>
  </defs>
  <g id="Layer_1-2" data-name="Layer 1">
    <g>
      <rect class="cls-2" width="59" height="59"/>
      <g>
        <path class="cls-1" d="M12.15,37.01c.06-.62,.08-1.2,.18-1.76,.51-3.01,3.06-5.22,6.12-5.27,1.91-.03,3.81-.04,5.72,0,3.43,.06,6.15,2.8,6.24,6.23,0,.32,0,.64,0,1.04h.8c1.13,0,2.25,0,3.38,0,.17,0,.35,0,.52,.02,.43,.08,.74,.45,.76,.86,.02,.43-.31,.84-.76,.92-.17,.03-.35,.02-.52,.02-7.08,0-14.16,0-21.24,0-2.84,0-4.77-1.94-4.77-4.79,0-5.31,0-10.61,0-15.92,0-2.84,1.94-4.77,4.79-4.77,4.63,0,9.27,0,13.9,0,.17,0,.35-.01,.52,.01,.46,.07,.8,.45,.8,.88,0,.43-.32,.83-.78,.91-.21,.03-.43,.02-.65,.02-4.59,0-9.18,0-13.77,.01-.46,0-.96,.08-1.38,.26-.99,.41-1.47,1.23-1.6,2.27-.02,.15,0,.3,0,.45,0,5.26,0,10.52,0,15.79,0,.74,.14,1.42,.61,2.01,.3,.38,.66,.67,1.16,.82Zm5.52,.2h9.1c.64,0,1.2,0,1.81,0,0-.39,.02-.75,0-1.11-.12-2.33-2-4.23-4.33-4.29-1.97-.05-3.94-.07-5.91,0-2.75,.1-4.79,2.74-4.23,5.39h1.74l1.82,.02Z"/>
        <path class="cls-1" d="M32.23,20.89c-1.4-.18-2.33-.84-2.66-2.19-.06-.25-.07-.51-.07-.77,0-2.3,0-4.59,0-6.89,0-1.79,1.14-2.92,2.93-2.92,3.51,0,7.02,0,10.52,0,1.79,0,2.92,1.14,2.92,2.93,0,2.3,0,4.59,0,6.89,0,1.79-1.14,2.92-2.93,2.92-1.78,0-3.55,0-5.33,0-.37,0-.66,.09-.95,.32-.86,.66-1.73,1.3-2.6,1.95-.14,.1-.27,.21-.42,.3-.65,.38-1.36,.03-1.41-.73-.04-.58,0-1.16,0-1.8Zm1.82-.04c.71-.53,1.32-.97,1.91-1.43,.36-.28,.74-.39,1.2-.39,1.93,.02,3.85,.01,5.78,0,.75,0,1.11-.33,1.11-1.04,.01-2.34,.01-4.67,0-7.01,0-.69-.36-1.04-1.05-1.04-3.55,0-7.1,0-10.65,0-.68,0-1.02,.36-1.03,1.06-.01,.56,0,1.13,0,1.69,0,1.75,0,3.51,0,5.26,0,.74,.34,1.07,1.07,1.09,.24,0,.48,0,.71,0,.58,.04,.9,.37,.94,.95,.01,.24,0,.47,0,.86Z"/>
        <path class="cls-1" d="M41.33,40.88c.87,0,1.73,0,2.6,0,3.72,.03,6.47,2.78,6.5,6.5,0,.76,0,1.52,0,2.27,0,.11,0,.22,0,.32-.05,.54-.44,.92-.92,.91-.48,0-.87-.39-.89-.93-.02-.82,0-1.65-.01-2.47,0-.41-.04-.82-.12-1.22-.43-2-2.15-3.49-4.19-3.54-1.97-.05-3.94-.06-5.91,0-2.35,.07-4.23,2.02-4.32,4.37-.02,.61,0,1.21,0,1.82,0,.3,0,.61,0,.91-.02,.64-.37,1.05-.9,1.06-.53,0-.91-.41-.92-1.04-.01-.74-.03-1.47,0-2.21,.04-.69,.08-1.39,.24-2.05,.68-2.68,3.1-4.61,5.86-4.69,.99-.03,1.99,0,2.99,0,0,0,0,0,0,0Z"/>
        <path class="cls-1" d="M21.37,17.22c3,.02,5.43,2.5,5.4,5.51-.02,3-2.49,5.42-5.51,5.41-2.99-.02-5.44-2.51-5.41-5.51,.03-3.01,2.5-5.43,5.51-5.41Zm3.58,5.48c0-2-1.62-3.64-3.62-3.66-2-.01-3.65,1.62-3.65,3.62,0,2,1.62,3.65,3.62,3.66,2,.01,3.65-1.63,3.66-3.62Z"/>
        <path class="cls-1" d="M41.38,28.14c3,.02,5.43,2.49,5.41,5.51-.02,3-2.48,5.43-5.5,5.41-3-.01-5.44-2.5-5.41-5.5,.03-3.01,2.49-5.43,5.51-5.41Zm-.03,9.1c2-.01,3.63-1.65,3.62-3.65,0-2-1.66-3.63-3.65-3.62-2,.01-3.63,1.65-3.62,3.65,0,1.99,1.66,3.63,3.65,3.62Z"/>
        <path class="cls-1" d="M42.24,24.52c0,.56,.01,1.12,0,1.68-.02,.62-.41,1.04-.93,1.02-.5-.01-.88-.41-.88-1-.01-1.14-.01-2.29,0-3.43,0-.62,.4-1.04,.93-1.02,.5,.01,.87,.41,.89,1,.02,.58,0,1.16,0,1.75Z"/>
      </g>
    </g>
  </g>
</svg>