<?xml version="1.0" encoding="UTF-8"?>
<svg id="Layer_2" data-name="Layer 2" xmlns="http://www.w3.org/2000/svg" width="59" height="59" viewBox="0 0 59 59">
  <defs>
    <style>
      .cls-1 {
        fill: #4678ee;
      }

      .cls-2 {
        fill: none;
      }
    </style>
  </defs>
  <g id="Layer_1-2" data-name="Layer 1">
    <g>
      <rect class="cls-2" width="59" height="59"/>
      <path class="cls-1" d="M33.21,17.64c.71-.36,1.34-.67,1.97-.98,1.8-.9,3.59-1.79,5.39-2.69,.34-.17,.69-.25,1.06-.09,.4,.18,.65,.48,.7,.93,.02,.15,.01,.3,.01,.45,0,6.87,0,13.74,0,20.61,0,.08,0,.16,0,.24,.02,.57-.25,.95-.75,1.2-1.21,.61-2.43,1.21-3.64,1.82-2.92,1.46-5.85,2.93-8.77,4.39-.87,.44-1.74,.88-2.62,1.3-.63,.3-1.29,.11-1.57-.47-.1-.21-.13-.47-.13-.71-.01-1.17,0-2.34,0-3.5,0-.15,0-.29,0-.52-.17,.08-.29,.12-.4,.18-2.05,1.03-4.1,2.05-6.15,3.08-.3,.15-.6,.31-.91,.45-.81,.36-1.6-.13-1.65-1.01,0-.12,0-.24,0-.37,0-6.83,.01-13.66-.01-20.49,0-.84,.31-1.31,1.05-1.67,2.91-1.42,5.81-2.89,8.71-4.34,1.97-.98,3.93-1.97,5.9-2.95,.17-.08,.35-.16,.53-.19,.65-.11,1.23,.33,1.3,.98,.02,.15,.01,.3,.01,.45,0,1.13,0,2.25,0,3.38,0,.15,0,.3,0,.54Zm6.82-.85c-4.34,2.17-8.61,4.31-12.88,6.44v18.74c4.32-2.16,8.6-4.3,12.88-6.44V16.78Zm-15.19,20.25v-.48c0-2.04,0-4.07,0-6.11,0-2.58,0-5.16,0-7.74,0-.62,.25-1.02,.8-1.29,1.23-.6,2.45-1.22,3.68-1.83,.53-.27,1.06-.54,1.57-.79,.08-.65,.05-3.2-.04-3.5-4.28,2.14-8.56,4.28-12.82,6.41v18.74c2.29-1.14,4.53-2.26,6.81-3.4Z"/>
    </g>
  </g>
</svg>